<svg width="69" height="69" viewBox="0 0 69 69" fill="none" xmlns="http://www.w3.org/2000/svg">
<g filter="url(#filter0_dii_49_2085)">
<path d="M2 11C2 5.47715 6.47715 1 12 1H57C62.5228 1 67 5.47715 67 11V56C67 61.5228 62.5228 66 57 66H12C6.47715 66 2 61.5228 2 56V11Z" fill="#4d1c64"/>
<path d="M12 1.5H57C62.2467 1.5 66.5 5.7533 66.5 11V56C66.5 61.2467 62.2467 65.5 57 65.5H12C6.7533 65.5 2.5 61.2467 2.5 56V11L2.5127 10.5107C2.76734 5.49142 6.91739 1.5 12 1.5Z" stroke="#E9EAEB" stroke-opacity="0.15"/>
<path d="M25.958 31.7915H29.3747V35.2082H25.958V31.7915ZM25.958 38.6248H29.3747V42.0415H25.958V38.6248ZM32.7913 31.7915H36.208V35.2082H32.7913V31.7915ZM32.7913 38.6248H36.208V42.0415H32.7913V38.6248ZM39.6247 31.7915H43.0413V35.2082H39.6247V31.7915ZM39.6247 38.6248H43.0413V42.0415H39.6247V38.6248Z" fill="#F7F7F0"/>
<path d="M22.5417 50.5832H46.4583C48.3426 50.5832 49.875 49.0508 49.875 47.1665V23.2498C49.875 21.3655 48.3426 19.8332 46.4583 19.8332H43.0417V16.4165H39.625V19.8332H29.375V16.4165H25.9583V19.8332H22.5417C20.6574 19.8332 19.125 21.3655 19.125 23.2498V47.1665C19.125 49.0508 20.6574 50.5832 22.5417 50.5832ZM46.4583 26.6665L46.46 47.1665H22.5417V26.6665H46.4583Z" fill="#F7F7F0"/>
</g>
<defs>
<filter id="filter0_dii_49_2085" x="0" y="0" width="69" height="69" filterUnits="userSpaceOnUse" color-interpolation-filters="sRGB">
<feFlood flood-opacity="0" result="BackgroundImageFix"/>
<feColorMatrix in="SourceAlpha" type="matrix" values="0 0 0 0 0 0 0 0 0 0 0 0 0 0 0 0 0 0 127 0" result="hardAlpha"/>
<feOffset dy="1"/>
<feGaussianBlur stdDeviation="1"/>
<feComposite in2="hardAlpha" operator="out"/>
<feColorMatrix type="matrix" values="0 0 0 0 0.0392157 0 0 0 0 0.0496732 0 0 0 0 0.0705882 0 0 0 0.05 0"/>
<feBlend mode="normal" in2="BackgroundImageFix" result="effect1_dropShadow_49_2085"/>
<feBlend mode="normal" in="SourceGraphic" in2="effect1_dropShadow_49_2085" result="shape"/>
<feColorMatrix in="SourceAlpha" type="matrix" values="0 0 0 0 0 0 0 0 0 0 0 0 0 0 0 0 0 0 127 0" result="hardAlpha"/>
<feOffset dy="-2"/>
<feComposite in2="hardAlpha" operator="arithmetic" k2="-1" k3="1"/>
<feColorMatrix type="matrix" values="0 0 0 0 0.0392157 0 0 0 0 0.0496732 0 0 0 0 0.0705882 0 0 0 0.05 0"/>
<feBlend mode="normal" in2="shape" result="effect2_innerShadow_49_2085"/>
<feColorMatrix in="SourceAlpha" type="matrix" values="0 0 0 0 0 0 0 0 0 0 0 0 0 0 0 0 0 0 127 0" result="hardAlpha"/>
<feMorphology radius="1" operator="erode" in="SourceAlpha" result="effect3_innerShadow_49_2085"/>
<feOffset/>
<feComposite in2="hardAlpha" operator="arithmetic" k2="-1" k3="1"/>
<feColorMatrix type="matrix" values="0 0 0 0 0.0392157 0 0 0 0 0.0496732 0 0 0 0 0.0705882 0 0 0 0.18 0"/>
<feBlend mode="normal" in2="effect2_innerShadow_49_2085" result="effect3_innerShadow_49_2085"/>
</filter>
</defs>
</svg>
