<svg width="24" height="24" viewBox="0 0 24 24" fill="none" xmlns="http://www.w3.org/2000/svg">
<g clip-path="url(#clip0_1_16745)">
<path d="M24 10.1137C23.9998 9.9977 23.9377 9.89054 23.8372 9.83279L22.1885 8.88587L23.8379 7.93384C23.9384 7.87576 24.0002 7.76851 24 7.65249C23.9998 7.53648 23.9377 7.42941 23.8372 7.37166C21.0266 5.75818 18.2162 4.14404 15.406 2.52948C15.3057 2.47182 15.1826 2.47196 15.0824 2.5298L0.162376 11.144C0.0618757 11.202 6.6348e-07 11.3093 0.000235038 11.4252C0.000469413 11.5412 0.0622975 11.6483 0.163032 11.7061C0.712501 12.0219 1.26211 12.3372 1.81163 12.6529L0.162141 13.6051C0.0616413 13.6631 -0.000233712 13.7704 6.63483e-07 13.8863C0.000235038 14.0023 0.0622975 14.1095 0.162798 14.1672L1.81149 15.1141L0.162141 16.0662C0.0616413 16.1243 -0.000233712 16.2315 6.63483e-07 16.3474C0.000235038 16.4634 0.0622975 16.5706 0.162798 16.6284L8.59397 21.4705C8.64403 21.4993 8.69977 21.5136 8.7555 21.5136C8.81147 21.5136 8.86739 21.4991 8.91764 21.4701L23.8378 12.856C23.9383 12.7981 24.0002 12.6908 24 12.5747C23.9997 12.4588 23.9377 12.3517 23.8372 12.2939L22.1885 11.3471L23.8378 10.3949C23.9384 10.3369 24.0002 10.2296 24 10.1137ZM15.2449 3.18498C17.8382 4.67495 20.4318 6.16449 23.0255 7.65362L17.4098 10.895C17.2312 10.7939 16.9034 10.6065 16.4772 10.3621L19.6697 8.51996C19.7464 8.47562 19.8017 8.40193 19.8226 8.31587C19.8437 8.22995 19.8285 8.13901 19.7808 8.06438C19.7122 7.9569 19.6114 7.7431 19.709 7.51918C19.7748 7.36768 19.7161 7.19082 19.573 7.1086L16.1215 5.12495C16.0379 5.07699 15.9372 5.06855 15.8466 5.10235C15.4032 5.26791 14.7981 5.24171 14.3055 5.03593C14.2125 4.9973 14.1059 5.00363 14.0183 5.0544L10.6399 7.0052C10.5156 6.93357 10.3962 6.86485 10.286 6.80143L9.63197 6.42493L15.2449 3.18498ZM19.0864 8.1076L15.8264 9.9887C14.498 9.22599 12.6682 8.17285 11.2897 7.3793L14.209 5.69335C14.7675 5.88854 15.399 5.91305 15.924 5.75963L19.0325 7.54618C19.005 7.73077 19.0234 7.92188 19.0864 8.1076ZM6.58402 8.18443C6.89733 8.36443 7.21069 8.54424 7.52405 8.72424L4.33697 10.5654C4.26033 10.6096 4.20502 10.6833 4.18411 10.7693C4.16302 10.8554 4.1782 10.9462 4.22592 11.0208C4.29455 11.1283 4.39528 11.3421 4.29792 11.5658C4.23206 11.7173 4.29075 11.8941 4.43391 11.9763L7.88428 13.9569C7.96767 14.0049 8.06883 14.0133 8.1592 13.9795C8.60217 13.8141 9.20733 13.84 9.70059 14.0456C9.74049 14.0624 9.78295 14.0706 9.82538 14.0706C9.88153 14.0706 9.93769 14.056 9.98752 14.0271L10.5192 13.7201C11.4676 13.1724 12.4159 12.6247 13.3644 12.0776L14.3656 12.6523L8.75498 15.8926C6.16125 14.4037 3.56728 12.9142 0.974157 11.4241L6.58402 8.18443ZM4.92038 10.9774L8.1743 9.09765C9.54675 9.88585 10.9193 10.6741 12.2918 11.4619L12.714 11.7043C11.8741 12.1888 11.0345 12.6735 10.1949 13.1584L9.79688 13.3883C9.23798 13.1931 8.60686 13.1691 8.08172 13.3223L4.97447 11.5387C5.0017 11.3542 4.98333 11.1631 4.92038 10.9774ZM2.46188 13.0264C4.50581 14.2006 6.5497 15.3747 8.59397 16.5481C8.64403 16.5769 8.69977 16.5912 8.7555 16.5912C8.81147 16.5912 8.86763 16.5767 8.91764 16.5477L14.6922 13.2127L14.6963 14.9238L8.75508 18.3539L0.974251 13.8852L2.46188 13.0264ZM8.75508 20.815L0.974251 16.3464L2.46202 15.4877L8.59397 19.0094C8.64403 19.0381 8.69977 19.0525 8.7555 19.0525C8.81147 19.0525 8.86739 19.038 8.91764 19.009L14.6981 15.6717L14.7023 17.3816L8.75508 20.815ZM15.3501 17.0076L15.3395 12.6504C15.3393 12.5345 15.2772 12.4276 15.1767 12.3699C15.1767 12.3699 9.02681 8.83984 7.23333 7.80943L8.98289 6.7997C8.98289 6.7997 16.549 11.1559 17.0891 11.4504L17.0982 15.9982L15.3501 17.0076ZM23.0257 12.5759L17.7461 15.6242L17.7427 13.9139L21.539 11.7221L23.0257 12.5759ZM17.7411 13.1658L17.7377 11.4549L21.5388 9.26077L23.0257 10.1147L17.7411 13.1658ZM7.81186 12.0519C7.72233 11.8968 7.77534 11.6985 7.93055 11.609L9.35138 10.7886C9.50616 10.6989 9.70486 10.7519 9.79434 10.9073C9.88388 11.0624 9.83086 11.2607 9.67566 11.3502L8.25483 12.1706C8.20374 12.2002 8.148 12.2141 8.09288 12.2141C7.98098 12.2141 7.87181 12.1561 7.81186 12.0519ZM16.3754 7.10724C16.4649 7.26235 16.4119 7.46073 16.2567 7.55021L15.0071 8.27171C14.956 8.30129 14.9003 8.31521 14.8452 8.31521C14.7333 8.31521 14.6241 8.25713 14.5642 8.15307C14.4746 7.99796 14.5276 7.79959 14.6828 7.7101L15.9324 6.9886C16.0874 6.89898 16.2859 6.95185 16.3754 7.10724Z" fill="#4d1c64"/>
</g>
<defs>
<clipPath id="clip0_1_16745">
<rect width="24" height="24" fill="white"/>
</clipPath>
</defs>
</svg>
