<svg width="20" height="20" viewBox="0 0 20 20" fill="none" xmlns="http://www.w3.org/2000/svg">
<path d="M10.0003 1.0415C8.22854 1.0415 6.49654 1.5669 5.02335 2.55126C3.55016 3.53561 2.40194 4.93471 1.72391 6.57163C1.04587 8.20855 0.868469 10.0098 1.21413 11.7475C1.55979 13.4853 2.41299 15.0815 3.66583 16.3343C4.91868 17.5872 6.5149 18.4404 8.25265 18.786C9.99039 19.1317 11.7916 18.9543 13.4285 18.2763C15.0655 17.5982 16.4646 16.45 17.4489 14.9768C18.4333 13.5036 18.9587 11.7716 18.9587 9.99984C18.956 7.62475 18.0113 5.3477 16.3319 3.66826C14.6525 1.98882 12.3754 1.04415 10.0003 1.0415ZM10.0003 17.7082C8.47577 17.7082 6.98544 17.2561 5.71781 16.4091C4.45018 15.5621 3.46218 14.3582 2.87876 12.9497C2.29533 11.5412 2.14268 9.99129 2.44011 8.49602C2.73754 7.00075 3.47169 5.62725 4.54972 4.54922C5.62774 3.47119 7.00124 2.73705 8.49651 2.43962C9.99178 2.14219 11.5417 2.29484 12.9502 2.87827C14.3587 3.46169 15.5626 4.44969 16.4096 5.71732C17.2566 6.98495 17.7087 8.47527 17.7087 9.99984C17.7065 12.0435 16.8936 14.0029 15.4485 15.448C14.0034 16.8931 12.044 17.706 10.0003 17.7082ZM12.942 12.0582C13.0034 12.1154 13.0527 12.1844 13.0868 12.2611C13.121 12.3377 13.1393 12.4205 13.1408 12.5044C13.1423 12.5883 13.1269 12.6717 13.0954 12.7495C13.064 12.8273 13.0172 12.898 12.9579 12.9574C12.8985 13.0167 12.8278 13.0635 12.75 13.0949C12.6722 13.1264 12.5888 13.1418 12.5049 13.1403C12.421 13.1389 12.3382 13.1205 12.2615 13.0863C12.1849 13.0522 12.1159 13.0029 12.0587 12.9415L9.55866 10.4415C9.5005 10.3836 9.45436 10.3148 9.42289 10.239C9.39143 10.1632 9.37527 10.0819 9.37533 9.99984V5.83317C9.37533 5.66741 9.44118 5.50844 9.55839 5.39123C9.6756 5.27402 9.83457 5.20817 10.0003 5.20817C10.1661 5.20817 10.3251 5.27402 10.4423 5.39123C10.5595 5.50844 10.6253 5.66741 10.6253 5.83317V9.74067L12.942 12.0582Z" fill="white"/>
</svg>
